<svg width="54" height="54" viewBox="0 0 54 54" fill="none" xmlns="http://www.w3.org/2000/svg">
<rect width="54" height="54" rx="27" fill="#EFF1F5"/>
<path d="M34.4948 25.5241C34.4598 22.1174 37.3319 20.4484 37.472 20.3796C35.8433 18.0568 33.3215 17.7299 32.4283 17.7127C30.3093 17.489 28.2603 18.9515 27.1746 18.9515C26.0713 18.9515 24.4076 17.7299 22.6213 17.7643C20.3096 17.7988 18.1556 19.1064 16.9822 21.1539C14.548 25.3004 16.3693 31.4085 18.6985 34.7636C19.8718 36.4153 21.2378 38.2391 23.0241 38.1703C24.7753 38.1015 25.4233 37.0692 27.5423 37.0692C29.6263 37.0692 30.2568 38.1703 32.0781 38.1187C33.9519 38.0843 35.1428 36.467 36.2636 34.8152C37.6121 32.9398 38.155 31.0816 38.1725 30.9783C38.1374 30.9611 34.5298 29.6019 34.4948 25.5241Z" fill="#353B41"/>
<path d="M31.142 15.6857C32.0937 14.4811 32.7459 12.827 32.552 11.1729C31.1772 11.2268 29.4675 12.1437 28.4805 13.3304C27.5992 14.3732 26.8237 16.0813 27.0352 17.6815C28.5686 17.7893 30.1549 16.8724 31.142 15.6857Z" fill="#353B41"/>
</svg>
