<svg width="133" height="31" viewBox="0 0 133 31" fill="none" xmlns="http://www.w3.org/2000/svg">
<path d="M67.5412 14.1098C64.9004 14.1098 62.7418 16.0384 62.7418 18.6901C62.7418 21.32 64.9004 23.2705 67.5412 23.2705C70.182 23.2705 72.3635 21.32 72.3635 18.6901C72.3635 16.0384 70.205 14.1098 67.5412 14.1098ZM67.5412 21.4515C66.0945 21.4515 64.8315 20.3119 64.8315 18.6901C64.8315 17.0465 66.0715 15.9288 67.5412 15.9288C68.9879 15.9288 70.2509 17.0465 70.2509 18.6901C70.2509 20.3119 68.9879 21.4515 67.5412 21.4515ZM57.0468 14.1098C54.406 14.1098 52.2474 16.0384 52.2474 18.6901C52.2474 21.32 54.406 23.2705 57.0468 23.2705C59.6876 23.2705 61.8462 21.32 61.8462 18.6901C61.8691 16.0384 59.7106 14.1098 57.0468 14.1098ZM57.0468 21.4515C55.6001 21.4515 54.3371 20.3119 54.3371 18.6901C54.3371 17.0465 55.6001 15.9288 57.0468 15.9288C58.4935 15.9288 59.7565 17.0465 59.7565 18.6901C59.7565 20.3119 58.5165 21.4515 57.0468 21.4515ZM44.5775 15.5124V17.4629H49.4458C49.308 18.5586 48.9176 19.3476 48.3435 19.8955C47.6317 20.5749 46.5294 21.32 44.5775 21.32C41.5922 21.32 39.2499 19.0189 39.2499 16.1698C39.2499 13.3208 41.5922 10.9978 44.5775 10.9978C46.185 10.9978 47.3791 11.6114 48.2517 12.3784L49.6754 11.0197C48.4584 9.90199 46.8509 9.06919 44.5775 9.06919C40.467 9.06919 37.0225 12.247 37.0225 16.1698C37.0225 20.0927 40.467 23.2705 44.5775 23.2705C46.805 23.2705 48.4584 22.5692 49.7673 21.2762C51.0992 20.0051 51.5355 18.1861 51.5355 16.7397C51.5355 16.2794 51.4896 15.863 51.4207 15.5343H44.5775V15.5124ZM95.6028 17.0246C95.2124 15.9945 93.9953 14.1098 91.4923 14.1098C89.0352 14.1098 86.9684 15.9726 86.9684 18.6901C86.9684 21.2543 88.9892 23.2705 91.7219 23.2705C93.9264 23.2705 95.1894 21.9994 95.7176 21.2543L94.0872 20.2242C93.536 20.9913 92.8012 21.4953 91.7219 21.4953C90.6656 21.4953 89.8848 21.0351 89.4026 20.1147L95.8094 17.5944L95.6028 17.0246ZM89.0811 18.5586C89.0352 16.8054 90.5048 15.8849 91.5841 15.8849C92.4108 15.8849 93.1227 16.2794 93.3753 16.8492L89.0811 18.5586ZM83.8683 22.9856H85.981V9.55134H83.8683V22.9856ZM80.4238 15.1398H80.3549C79.8727 14.6138 78.9771 14.1317 77.8289 14.1317C75.4407 14.1317 73.2362 16.1479 73.2362 18.7121C73.2362 21.2762 75.4407 23.2705 77.8289 23.2705C78.9771 23.2705 79.8727 22.7884 80.3549 22.2405H80.4238V22.8979C80.4238 24.6512 79.4364 25.5935 77.8748 25.5935C76.5889 25.5935 75.7851 24.7169 75.4636 23.9718L73.6265 24.695C74.1547 25.9004 75.5555 27.3906 77.8748 27.3906C80.3549 27.3906 82.4216 26.0099 82.4216 22.6349V14.4166H80.4238V15.1398ZM78.0126 21.4515C76.5659 21.4515 75.3488 20.29 75.3488 18.6901C75.3488 17.0684 76.5659 15.9069 78.0126 15.9069C79.4364 15.9069 80.5616 17.0903 80.5616 18.6901C80.5616 20.3119 79.4364 21.4515 78.0126 21.4515ZM105.477 9.55134H100.448V22.9856H102.538V17.9012H105.477C107.819 17.9012 110.093 16.2794 110.093 13.7372C110.093 11.1512 107.796 9.55134 105.477 9.55134ZM105.523 16.0164H102.538V11.4142H105.523C107.085 11.4142 107.98 12.6634 107.98 13.7153C107.98 14.7672 107.085 16.0164 105.523 16.0164ZM118.498 14.0879C116.982 14.0879 115.397 14.7234 114.754 16.1479L116.615 16.8931C117.005 16.1479 117.763 15.9069 118.543 15.9069C119.623 15.9069 120.748 16.5424 120.748 17.6382V17.7697C120.358 17.5505 119.554 17.2437 118.543 17.2437C116.546 17.2437 114.479 18.2957 114.479 20.2681C114.479 22.0651 116.132 23.2267 117.969 23.2267C119.393 23.2267 120.174 22.613 120.656 21.9117H120.725V22.9418H122.746V17.7916C122.792 15.4247 120.932 14.0879 118.498 14.0879ZM118.245 21.4515C117.556 21.4515 116.592 21.1228 116.592 20.3119C116.592 19.2819 117.786 18.8655 118.819 18.8655C119.738 18.8655 120.174 19.0627 120.748 19.3257C120.587 20.5749 119.462 21.4515 118.245 21.4515ZM130.186 14.3947L127.775 20.2242H127.706L125.203 14.3947H122.93L126.673 22.5254L124.537 27.0619H126.742L132.528 14.3947H130.186ZM111.241 22.9856H113.354V9.55134H111.241V22.9856Z" fill="#353B41"/>
<path d="M1.53748 1.31237C1.1907 1.67063 0.967773 2.24384 0.967773 2.96035V28.8741C0.967773 29.5906 1.16593 30.1638 1.53748 30.5221L1.63655 30.5938L16.6965 16.0725V15.7381L1.63655 1.24072L1.53748 1.31237Z" fill="url(#paint0_linear_1856_2775)"/>
<path d="M21.6981 20.918L16.6946 16.0696V15.7352L21.7228 10.8868L21.8467 10.9585L27.7914 14.2305C29.4757 15.162 29.4757 16.6906 27.7914 17.622L21.8467 20.8702L21.6981 20.918Z" fill="url(#paint1_linear_1856_2775)"/>
<path d="M21.8281 20.8719L16.7008 15.928L1.54175 30.5209C2.11145 31.0941 3.02793 31.1657 4.06825 30.5925L21.8281 20.8719Z" fill="url(#paint2_linear_1856_2775)"/>
<path d="M21.8281 10.9604L4.06825 1.23973C3.02793 0.666523 2.11145 0.738174 1.54175 1.31138L16.676 15.9043L21.8281 10.9604Z" fill="url(#paint3_linear_1856_2775)"/>
<defs>
<linearGradient id="paint0_linear_1856_2775" x1="15.3433" y1="29.1425" x2="-8.97499" y2="3.62428" gradientUnits="userSpaceOnUse">
<stop stop-color="#00A0FF"/>
<stop offset="0.0066" stop-color="#00A1FF"/>
<stop offset="0.2601" stop-color="#00BEFF"/>
<stop offset="0.5122" stop-color="#00D2FF"/>
<stop offset="0.7604" stop-color="#00DFFF"/>
<stop offset="1" stop-color="#00E3FF"/>
</linearGradient>
<linearGradient id="paint1_linear_1856_2775" x1="29.9636" y1="15.9127" x2="-6.8706" y2="15.9127" gradientUnits="userSpaceOnUse">
<stop stop-color="#FFE000"/>
<stop offset="0.4087" stop-color="#FFBD00"/>
<stop offset="0.7754" stop-color="#FFA500"/>
<stop offset="1" stop-color="#FF9C00"/>
</linearGradient>
<linearGradient id="paint2_linear_1856_2775" x1="8.88867" y1="22.9997" x2="-24.0888" y2="-11.605" gradientUnits="userSpaceOnUse">
<stop stop-color="#FF3A44"/>
<stop offset="1" stop-color="#C31162"/>
</linearGradient>
<linearGradient id="paint3_linear_1856_2775" x1="-12.4046" y1="29.3629" x2="2.32052" y2="13.9113" gradientUnits="userSpaceOnUse">
<stop stop-color="#32A071"/>
<stop offset="0.0685" stop-color="#2DA771"/>
<stop offset="0.4762" stop-color="#15CF74"/>
<stop offset="0.8009" stop-color="#06E775"/>
<stop offset="1" stop-color="#00F076"/>
</linearGradient>
</defs>
</svg>
