<svg width="50" height="59" viewBox="0 0 50 59" fill="none" xmlns="http://www.w3.org/2000/svg">
<path d="M42.1998 18.7004C41.5998 18.5004 40.8998 18.8004 40.6998 19.4004C40.3998 20.3004 39.3998 20.8004 38.3998 20.5004C36.2998 19.8004 33.8998 20.9004 33.1998 23.0004C33.0998 23.3004 33.0998 23.6004 33.2998 23.8004C33.3998 24.1004 33.6998 24.3004 33.9998 24.4004C34.0998 24.4004 34.1998 24.5004 34.3998 24.5004C34.8998 24.5004 35.2998 24.2004 35.4998 23.7004C35.7998 22.8004 36.7998 22.3004 37.7998 22.6004C39.8998 23.3004 42.2998 22.2004 42.9998 20.1004C43.0998 19.8004 43.0998 19.5004 42.9998 19.3004C42.7998 19.1004 42.4998 18.8004 42.1998 18.7004Z" fill="url(#paint0_linear_1856_2824)"/>
<path d="M44.0998 10.5988C43.4998 10.3988 42.7998 10.6988 42.5998 11.2988C42.4998 11.5988 42.2998 11.8988 41.9998 11.9988C41.6998 12.0988 41.2998 12.1988 40.9998 12.0988C39.0998 11.4988 37.0998 12.4988 36.3998 14.2988C36.2998 14.5988 36.2998 14.8988 36.4998 15.0988C36.5998 15.3988 36.8998 15.5988 37.1998 15.6988C37.2998 15.6988 37.3998 15.7988 37.5998 15.7988C38.0998 15.7988 38.4998 15.4988 38.6998 14.9988C38.8998 14.3988 39.6998 13.9988 40.2998 14.1988C41.1998 14.4988 42.1998 14.3988 43.0998 13.9988C43.9998 13.5988 44.5998 12.8988 44.8998 11.9988C44.9998 11.6988 44.9998 11.3988 44.8998 11.1988C44.5998 10.8988 44.3998 10.6988 44.0998 10.5988Z" fill="url(#paint1_linear_1856_2824)"/>
<path d="M46.1998 26.6998C45.9998 26.5998 45.8998 26.4998 45.6998 26.4998C47.7998 19.8998 48.9998 13.4998 49.0998 7.39975C49.1998 5.39975 48.0998 2.79975 46.0998 1.59975C45.0998 0.99975 43.4998 0.49975 41.3998 1.49975C38.1998 3.09975 35.8998 7.69975 34.0998 11.4998L33.8998 11.8997C33.3998 10.1997 32.1998 8.79975 30.5998 7.99975C30.1998 6.09975 28.5998 4.59975 26.5998 4.19975C26.5998 4.09975 26.5998 3.99975 26.4998 3.89975C26.0998 2.49975 24.7998 1.49975 23.3998 1.29975C22.5998 1.19975 21.7998 1.39975 21.0998 1.69975C20.4998 1.39975 19.8998 1.19975 19.1998 1.19975C17.2998 1.19975 15.6998 2.39975 15.2998 4.09975C13.1998 4.69975 11.7998 6.39975 11.7998 8.49975C9.3998 9.09975 7.7998 11.1998 7.7998 13.4998C7.7998 14.0998 7.8998 14.6998 8.0998 15.2998C7.4998 15.9998 7.1998 16.8997 7.1998 17.7997C7.1998 18.1997 7.2998 18.5998 7.3998 18.9998C6.5998 18.1998 5.1998 17.2997 3.3998 17.2997C3.0998 17.2997 2.7998 17.3998 2.5998 17.6998C2.3998 17.8998 2.2998 18.1998 2.2998 18.4998C2.2998 19.0998 2.7998 19.5998 3.4998 19.5998C3.4998 19.5998 3.4998 19.5998 3.5998 19.5998C4.5998 19.5998 5.4998 20.2997 5.9998 20.7997C4.2998 21.2997 2.3998 21.9998 1.3998 23.6998C0.799805 24.6998 0.699805 25.9998 1.0998 27.4998C0.899805 27.7998 0.799805 28.1998 0.799805 28.4998L2.5998 53.1997C2.7998 56.2997 5.4998 58.7997 8.7998 58.7997H38.6998C41.9998 58.7997 44.6998 56.2997 44.8998 53.1997L46.7998 27.5998C46.8998 27.3998 46.6998 26.9998 46.1998 26.6998ZM42.6998 53.3997C42.5998 55.3997 40.8998 56.8997 38.8998 56.8997H8.8998C6.8998 56.8997 5.1998 55.3997 5.0998 53.3997L3.2998 29.3997L4.0998 29.7997C5.0998 30.3997 6.1998 30.6998 7.3998 30.6998C7.3998 30.6998 7.3998 30.6998 7.4998 30.6998C8.6998 30.6998 9.7998 30.3997 10.7998 29.7997L11.1998 29.5998C11.6998 29.2998 12.2998 29.1998 12.8998 29.1998C13.4998 29.1998 14.0998 29.3998 14.5998 29.5998L15.3998 29.9998C16.3998 30.4998 17.4998 30.7998 18.5998 30.6998H18.6998C18.7998 30.6998 18.7998 30.6998 18.8998 30.6998C19.6998 30.5998 20.3998 30.3998 20.9998 29.9998C20.9998 29.9998 20.9998 29.9998 21.0998 29.9998H21.1998L21.9998 29.5998C22.4998 29.2998 23.0998 29.1998 23.6998 29.1998C24.2998 29.1998 24.8998 29.3998 25.3998 29.5998L26.1998 29.9998C26.9998 30.4998 27.8998 30.6997 28.8998 30.7997C29.1998 30.7997 29.5998 30.7997 29.7998 30.7997C29.8998 30.7997 30.0998 30.6998 30.1998 30.6998H30.2998C30.3998 30.6998 30.4998 30.6998 30.4998 30.5998C31.0998 30.4998 31.4998 30.2998 31.8998 30.0998L32.6998 29.6998C33.1998 29.3998 33.7998 29.2997 34.3998 29.2997C34.9998 29.2997 35.5998 29.4998 36.0998 29.6998L36.8998 30.0998C37.7998 30.5998 38.7998 30.8997 39.7998 30.8997C40.7998 30.8997 41.7998 30.5998 42.5998 30.1998L44.6998 29.2997C44.6998 29.2997 44.7998 29.2998 44.7998 29.1998L42.6998 53.3997ZM11.0998 15.9998L10.5998 15.1997C10.2998 14.6997 10.1998 14.1997 10.1998 13.6997C10.1998 12.0997 11.4998 10.7997 13.1998 10.6997L14.5998 10.5998L14.2998 9.29975C14.2998 9.09975 14.1998 8.89975 14.1998 8.69975C14.1998 7.39975 15.1998 6.39975 16.4998 6.29975L17.5998 6.19975V5.09975C17.5998 4.19975 18.3998 3.49975 19.2998 3.49975C19.7998 3.49975 20.1998 3.69975 20.3998 3.89975L21.1998 4.59975L21.9998 3.99975C22.2998 3.69975 22.6998 3.59975 23.1998 3.59975C23.6998 3.69975 24.1998 4.09975 24.3998 4.59975C24.4998 4.79975 24.4998 4.89975 24.3998 5.09975L24.2998 6.39975H25.5998C27.0998 6.39975 28.2998 7.49975 28.3998 8.89975L28.4998 9.59975L29.1998 9.79975C30.7998 10.2998 31.8998 11.7998 31.8998 13.4998C31.8998 14.1998 31.6998 14.7997 31.2998 15.3997C30.5998 14.7997 29.7998 14.4997 29.1998 14.1997L28.9998 14.0998C28.8998 13.9998 28.6998 13.9997 28.5998 13.8997C28.5998 13.8997 28.4998 13.8998 28.4998 13.7998C28.4998 13.6998 28.4998 13.4997 28.5998 13.3997C29.0998 12.8997 29.2998 12.0997 29.0998 11.3997L28.9998 10.7998C28.8998 10.1998 28.4998 9.69975 27.9998 9.39975C27.4998 9.09975 26.7998 8.99975 26.1998 9.09975L19.6998 10.4998C19.0998 10.5998 18.5998 10.9998 18.1998 11.4998C17.9998 11.9998 17.8998 12.5997 17.9998 13.1997L18.0998 13.7998C18.2998 14.4998 18.7998 15.0997 19.4998 15.3997C19.5998 15.4997 19.7998 15.5997 19.7998 15.6997C19.7998 15.6997 19.7998 15.6998 19.7998 15.7998C19.6998 15.8998 19.5998 15.9998 19.4998 16.0998L19.3998 16.1998C19.2998 16.2998 19.1998 16.4998 18.9998 16.5998L18.8998 16.6998V16.7997C18.7998 16.8997 18.6998 16.9998 18.5998 17.1998C18.5998 17.2998 18.4998 17.2997 18.4998 17.3997C18.3998 17.4997 18.2998 17.5997 18.2998 17.7997C18.2998 17.8997 18.1998 17.8998 18.1998 17.9998C18.0998 18.1998 17.9998 18.2998 17.9998 18.4998C17.9998 18.4998 17.9998 18.5998 17.8998 18.6998C17.7998 18.8998 17.6998 19.1997 17.6998 19.3997C17.6998 19.3997 17.6998 19.3998 17.6998 19.4998C17.5998 19.6998 17.5998 19.8998 17.5998 20.1998C17.5998 20.2998 17.5998 20.2997 17.5998 20.3997V20.5998C17.4998 20.3998 17.2998 20.2998 17.0998 20.0998C16.9998 19.9998 16.9998 19.9997 16.8998 19.8997C16.6998 19.6997 16.5998 19.5997 16.3998 19.3997L16.2998 19.2997L16.1998 19.1998C15.9998 18.9998 15.7998 18.8998 15.5998 18.6998C15.5998 18.6998 15.4998 18.6998 15.4998 18.5998H15.3998C15.1998 18.4998 15.0998 18.3997 14.8998 18.2997C14.7998 18.2997 14.6998 18.1998 14.6998 18.1998C14.4998 18.0998 14.3998 18.0998 14.1998 17.9998C14.1998 17.9998 14.1998 17.9998 14.0998 17.9998H13.9998C13.7998 17.8998 13.5998 17.8997 13.4998 17.8997C13.4998 17.8997 13.4998 17.8997 13.3998 17.8997C13.3998 17.8997 13.3998 17.8997 13.2998 17.8997C13.1998 17.8997 13.0998 17.8997 13.0998 17.8997H12.9998H12.8998C12.7998 17.8997 12.7998 17.8997 12.6998 17.8997C12.6998 17.8997 12.6998 17.8997 12.5998 17.8997C12.3998 17.8997 12.2998 17.8997 12.0998 17.8997H11.9998C11.8998 17.8997 11.8998 17.8997 11.7998 17.8997C11.5998 17.8997 11.3998 17.9998 11.1998 18.0998C11.1998 18.0998 11.1998 18.0998 11.0998 18.0998C10.5998 18.2998 10.0998 18.4997 9.6998 18.7997C9.5998 18.5997 9.5998 18.3998 9.5998 18.1998C9.5998 17.5998 9.8998 17.0998 10.2998 16.6998L11.0998 15.9998ZM28.1998 24.2997C28.0998 24.4997 28.0998 24.6997 27.9998 24.8997C27.9998 24.9997 27.8998 25.0998 27.8998 25.0998C27.8998 25.1998 27.7998 25.2997 27.7998 25.3997C27.4998 26.2997 27.1998 27.1998 26.8998 27.9998L26.2998 27.6998C25.3998 27.1998 24.3998 26.8997 23.3998 26.8997C23.2998 26.8997 23.1998 26.8997 23.1998 26.8997H22.9998C22.8998 26.8997 22.8998 26.8997 22.7998 26.8997C22.1998 26.9997 21.6998 27.0997 21.1998 27.2997L20.9998 26.6998C21.2998 26.6998 21.4998 26.6998 21.7998 26.6998C23.5998 26.6998 25.1998 26.1998 26.8998 24.9998C27.2998 24.7998 27.6998 24.4997 28.1998 24.2997ZM20.4998 24.3997L19.8998 21.5998C19.4998 19.6998 20.3998 18.5998 21.2998 17.4998L21.3998 17.3997C21.4998 17.2997 21.5998 17.1998 21.6998 17.0998C21.7998 16.9998 21.7998 16.8997 21.8998 16.7997C22.1998 16.2997 22.1998 15.7998 22.0998 15.2998L26.3998 14.3997C26.3998 14.4997 26.4998 14.5997 26.4998 14.6997C26.6998 15.1997 27.0998 15.5997 27.5998 15.8997C27.6998 15.9997 27.8998 15.9998 27.9998 16.0998L28.0998 16.1998C28.1998 16.2998 28.3998 16.2997 28.4998 16.3997H28.5998C28.5998 16.3997 28.6998 16.3998 28.6998 16.4998C28.7998 16.5998 28.8998 16.5998 28.9998 16.6998C29.0998 16.7998 29.1998 16.7997 29.2998 16.8997C29.3998 16.9997 29.4998 17.0998 29.5998 17.0998C29.6998 17.1998 29.7998 17.2997 29.8998 17.2997C29.9998 17.3997 30.0998 17.4998 30.1998 17.5998C30.2998 17.7998 30.4998 17.8998 30.5998 18.1998C30.1998 18.9998 29.7998 19.9998 29.2998 21.0998C29.2998 21.1998 29.1998 21.1997 29.1998 21.2997C29.1998 21.3997 29.0998 21.3998 29.0998 21.4998C27.8998 21.7998 26.7998 22.2997 25.3998 23.2997C23.7998 24.3997 22.4998 24.6997 20.4998 24.3997ZM26.7998 11.8997C26.7998 11.9997 26.6998 11.9998 26.5998 11.9998L20.6998 13.1997C20.4998 13.1997 20.2998 13.0998 20.2998 12.9998C20.2998 12.8998 20.2998 12.7998 20.2998 12.7998C20.2998 12.6998 20.3998 12.6997 20.4998 12.6997L26.3998 11.4998C26.5998 11.4998 26.7998 11.5997 26.7998 11.6997C26.8998 11.6997 26.8998 11.7997 26.7998 11.8997ZM12.3998 19.9998C12.5998 19.9998 12.7998 19.9998 12.9998 19.9998H13.0998H13.1998C13.2998 19.9998 13.3998 19.9998 13.4998 20.0998H13.5998H13.6998C13.7998 20.0998 13.7998 20.1998 13.8998 20.1998L13.9998 20.2997L14.0998 20.3997C14.1998 20.3997 14.1998 20.4998 14.2998 20.4998C14.3998 20.4998 14.3998 20.5998 14.4998 20.5998L14.5998 20.6998C14.6998 20.6998 14.6998 20.7997 14.7998 20.7997C14.8998 20.8997 14.8998 20.8998 14.9998 20.9998L15.0998 21.0998C15.0998 21.0998 15.1998 21.1997 15.1998 21.2997C15.2998 21.3997 15.3998 21.4998 15.3998 21.5998L15.4998 21.7997C15.4998 21.7997 15.5998 21.8998 15.5998 21.9998C15.6998 22.0998 15.7998 22.2998 15.8998 22.4998C15.8998 22.4998 15.8998 22.5998 15.9998 22.5998L16.0998 22.6998C16.2998 22.9998 16.3998 23.1998 16.5998 23.4998C17.2998 24.7998 17.5998 26.5997 17.2998 28.2997C17.2998 28.2997 17.2998 28.2997 17.1998 28.2997C16.7998 28.1997 16.3998 28.0997 16.0998 27.8997L15.2998 27.4998C14.3998 26.9998 13.3998 26.6998 12.3998 26.6998C11.3998 26.6998 10.3998 26.9998 9.4998 27.4998L9.0998 27.6998C8.4998 28.0998 7.7998 28.1997 7.0998 28.2997C6.3998 28.2997 5.6998 28.0998 5.0998 27.6998L3.6998 26.8997C3.4998 26.7997 3.2998 26.6998 3.0998 26.6998C2.9998 25.8998 2.9998 25.2997 3.2998 24.8997C3.6998 24.0997 4.7998 23.4998 6.6998 22.9998C7.5998 22.7998 8.3998 22.2998 9.0998 21.6998C9.3998 21.4998 9.6998 21.1998 9.9998 20.9998C10.9998 20.3998 11.6998 20.0998 12.3998 19.9998ZM43.2998 26.0998C43.1998 26.2998 43.0998 26.6997 42.8998 27.2997L41.0998 28.0998C41.0998 28.0998 40.9998 28.0998 40.9998 28.1998C40.4998 28.4998 39.8998 28.5998 39.2998 28.5998C38.6998 28.5998 38.0998 28.3998 37.5998 28.1998L36.9998 27.6998C36.0998 27.1998 35.0998 26.8997 34.0998 26.8997C33.0998 26.8997 32.0998 27.1998 31.1998 27.6998L30.3998 28.0998C30.0998 28.2998 29.6998 28.3998 29.1998 28.4998V28.3997C29.4998 27.4997 29.7998 26.5998 30.0998 25.5998C30.1998 25.1998 30.3998 24.8998 30.4998 24.4998C30.7998 23.7998 30.9998 23.0997 31.3998 22.2997L31.4998 21.9998C31.5998 21.7998 31.6998 21.4997 31.7998 21.2997C32.6998 19.0997 33.7998 16.9998 34.8998 14.9998C35.2998 14.1998 35.7998 13.2998 36.2998 12.2998C37.8998 9.09975 40.0998 4.59975 42.5998 3.39975C43.4998 2.99975 44.2998 2.89975 44.8998 3.39975C46.0998 4.09975 46.7998 5.99975 46.7998 7.19975C46.5998 13.2997 45.4998 19.6998 43.2998 26.0998Z" fill="url(#paint2_linear_1856_2824)"/>
<path d="M19.0998 50.9004H7.39983C6.79983 50.9004 6.19983 51.4004 6.19983 52.0004C6.19983 52.6004 6.69983 53.1004 7.39983 53.1004H19.0998C19.6998 53.1004 20.2998 52.6004 20.2998 52.0004C20.2998 51.4004 19.7998 50.9004 19.0998 50.9004Z" fill="url(#paint3_linear_1856_2824)"/>
<path d="M25.4998 50.9004H23.3998C22.7998 50.9004 22.1998 51.4004 22.1998 52.0004C22.1998 52.6004 22.6998 53.1004 23.3998 53.1004H25.4998C26.0998 53.1004 26.6998 52.6004 26.6998 52.0004C26.6998 51.4004 26.1998 50.9004 25.4998 50.9004Z" fill="url(#paint4_linear_1856_2824)"/>
<defs>
<linearGradient id="paint0_linear_1856_2824" x1="33.2172" y1="21.5687" x2="43.0178" y2="21.5687" gradientUnits="userSpaceOnUse">
<stop stop-color="#09C272"/>
<stop offset="1" stop-color="#019D6A"/>
</linearGradient>
<linearGradient id="paint1_linear_1856_2824" x1="36.295" y1="13.1173" x2="44.8519" y2="13.1173" gradientUnits="userSpaceOnUse">
<stop stop-color="#09C272"/>
<stop offset="1" stop-color="#019D6A"/>
</linearGradient>
<linearGradient id="paint2_linear_1856_2824" x1="0.900205" y1="29.9994" x2="49.0995" y2="29.9994" gradientUnits="userSpaceOnUse">
<stop stop-color="#09C272"/>
<stop offset="1" stop-color="#019D6A"/>
</linearGradient>
<linearGradient id="paint3_linear_1856_2824" x1="6.23473" y1="52.0404" x2="20.3011" y2="52.0404" gradientUnits="userSpaceOnUse">
<stop stop-color="#09C272"/>
<stop offset="1" stop-color="#019D6A"/>
</linearGradient>
<linearGradient id="paint4_linear_1856_2824" x1="22.2327" y1="52.0404" x2="26.699" y2="52.0404" gradientUnits="userSpaceOnUse">
<stop stop-color="#09C272"/>
<stop offset="1" stop-color="#019D6A"/>
</linearGradient>
</defs>
</svg>
