<svg width="22" height="18" viewBox="0 0 22 18" fill="none" xmlns="http://www.w3.org/2000/svg">
<path d="M18.2625 11.3437C18.6595 11.3437 19.0565 11.0625 19.1557 10.6875L21.9348 3.1875C22.0341 2.90625 22.0341 2.53125 21.8356 2.25C21.637 1.96875 21.3393 1.78125 20.9423 1.78125H5.95515L5.26038 0.5625C5.06188 0.1875 4.66487 0 4.26786 0H1.09178C0.496263 0 0 0.46875 0 1.03125C0 1.59375 0.496263 2.0625 1.09178 2.0625H3.67234L4.26786 3.1875L6.84842 11.4375V11.5312L7.54319 13.5937H6.15366C5.95515 13.5937 5.75665 13.6875 5.55814 13.7812C4.56562 13.9687 3.7716 14.8125 3.7716 15.8437C3.7716 16.9687 4.76412 18 6.0544 18C7.34469 18 8.33721 17.0625 8.33721 15.8437C8.33721 15.75 8.33721 15.75 8.33721 15.6562H15.7811C15.7811 15.75 15.7811 15.75 15.7811 15.8437C15.7811 16.9687 16.7737 18 18.064 18C19.3542 18 20.3468 17.0625 20.3468 15.8437C20.3468 14.8125 19.652 14.0625 18.5602 13.7812C18.3617 13.6875 18.1632 13.5937 17.9647 13.5937H9.72675L9.23048 12.0937L18.2625 11.3437Z" fill="white"/>
</svg>
