<svg width="60" height="60" viewBox="0 0 60 60" fill="none" xmlns="http://www.w3.org/2000/svg">
<path d="M50.6004 9.39844C45.1004 3.89844 37.8004 0.898438 30.0004 0.898438C22.2004 0.898438 14.9004 3.89844 9.40039 9.39844C3.90039 14.8984 0.900391 22.1984 0.900391 29.9984C0.900391 37.7984 3.90039 45.0984 9.40039 50.5984C14.9004 56.0984 22.2004 59.0984 30.0004 59.0984C37.8004 59.0984 45.1004 56.0984 50.6004 50.5984C56.1004 45.0984 59.1004 37.7984 59.1004 29.9984C59.1004 22.1984 56.1004 14.8984 50.6004 9.39844ZM30.0004 56.5984C15.3004 56.5984 3.40039 44.6984 3.40039 29.9984C3.40039 15.2984 15.3004 3.39844 30.0004 3.39844C44.7004 3.39844 56.6004 15.2984 56.6004 29.9984C56.6004 44.6984 44.7004 56.5984 30.0004 56.5984Z" fill="url(#paint0_linear_1856_2841)"/>
<path d="M45.7004 14.298C38.1004 6.79803 26.3004 5.59803 17.5004 11.698C16.9004 12.098 16.8004 12.898 17.2004 13.398C17.6004 13.998 18.4004 14.098 18.9004 13.698C26.7004 8.39803 37.2004 9.39803 43.9004 16.098C47.6004 19.798 49.7004 24.798 49.7004 29.998C49.7004 35.298 47.7004 40.198 43.9004 43.898C40.2004 47.598 35.2004 49.698 30.0004 49.698C24.7004 49.698 19.8004 47.698 16.1004 43.898C9.50038 37.298 8.40038 26.798 13.6004 18.998C13.8004 18.698 13.9004 18.398 13.8004 18.098C13.7004 17.798 13.5004 17.498 13.3004 17.298C13.0004 17.098 12.7004 16.998 12.4004 17.098C12.1004 17.198 11.8004 17.398 11.6004 17.598C5.70038 26.398 6.90038 38.198 14.4004 45.598C18.6004 49.798 24.2004 52.098 30.1004 52.098C36.0004 52.098 41.6004 49.798 45.8004 45.598C50.0004 41.398 52.3004 35.798 52.3004 29.898C52.2004 24.098 49.9004 18.498 45.7004 14.298Z" fill="url(#paint1_linear_1856_2841)"/>
<path d="M15.0004 16.1988C15.3004 16.1988 15.6004 16.0988 15.9004 15.7988C16.4004 15.2988 16.4004 14.5988 15.9004 14.0988C15.7004 13.8988 15.4004 13.7988 15.1004 13.7988C14.8004 13.7988 14.5004 13.8988 14.2004 14.1988C13.7004 14.6988 13.7004 15.3988 14.2004 15.8988C14.4004 16.0988 14.7004 16.1988 15.0004 16.1988Z" fill="url(#paint2_linear_1856_2841)"/>
<path d="M45.9004 31.1988H47.1004C47.7004 31.1988 48.2004 30.6988 48.2004 29.9988C48.2004 29.2988 47.7004 28.7988 47.1004 28.7988H45.9004C45.3004 28.7988 44.8004 29.2988 44.8004 29.9988C44.8004 30.6988 45.3004 31.1988 45.9004 31.1988Z" fill="url(#paint3_linear_1856_2841)"/>
<path d="M14.1004 28.7988H12.9004C12.3004 28.7988 11.8004 29.2988 11.8004 29.9988C11.8004 30.6988 12.3004 31.1988 12.9004 31.1988H14.1004C14.7004 31.1988 15.2004 30.6988 15.2004 29.9988C15.2004 29.2988 14.7004 28.7988 14.1004 28.7988Z" fill="url(#paint4_linear_1856_2841)"/>
<path d="M28.8004 45.8988V47.0988C28.8004 47.6988 29.3004 48.1988 30.0004 48.1988C30.7004 48.1988 31.2004 47.6988 31.2004 47.0988V45.8988C31.2004 45.2988 30.7004 44.7988 30.0004 44.7988C29.3004 44.7988 28.8004 45.2988 28.8004 45.8988Z" fill="url(#paint5_linear_1856_2841)"/>
<path d="M31.2004 14.7992V13.0992C31.2004 12.2992 30.7004 11.6992 30.0004 11.6992C29.3004 11.6992 28.8004 12.2992 28.8004 13.0992V14.7992C28.8004 15.5992 29.3004 16.1992 30.0004 16.1992C30.7004 16.1992 31.2004 15.5992 31.2004 14.7992Z" fill="url(#paint6_linear_1856_2841)"/>
<path d="M43.9004 35.5977C43.0004 37.9977 41.5004 40.0977 39.6004 41.6977C39.5004 41.7977 39.4004 41.8977 39.2004 41.9977C38.7004 42.3977 38.6004 43.1977 39.0004 43.6977C39.2004 43.9977 39.6004 44.1977 40.0004 44.1977C40.3004 44.1977 40.5004 44.0977 40.7004 43.8977C40.8004 43.7977 41.0004 43.6977 41.1004 43.4977C43.3004 41.5977 45.0004 39.1977 46.1004 36.3977C46.3004 35.7977 46.1004 34.9977 45.5004 34.7977C45.2004 34.6977 44.9004 34.6977 44.6004 34.7977C44.3004 34.9977 44.0004 35.2977 43.9004 35.5977Z" fill="url(#paint7_linear_1856_2841)"/>
<path d="M36.4004 46.1992C36.6004 46.1992 36.8004 46.1992 37.0004 46.0992H37.1004C37.6004 45.9992 37.9004 45.6992 38.1004 45.2992C38.2004 44.9992 38.2004 44.6992 38.0004 44.4992C37.6004 43.8992 36.7004 43.6992 35.9004 43.8992H35.8004C35.3004 43.9992 35.0004 44.2992 34.8004 44.6992C34.7004 44.9992 34.7004 45.2992 34.9004 45.4992C35.2004 45.8992 35.8004 46.1992 36.4004 46.1992Z" fill="url(#paint8_linear_1856_2841)"/>
<path d="M18.2004 41.7992C18.4004 41.9992 18.8004 42.1992 19.1004 42.1992C19.4004 42.1992 19.7004 42.0992 20.0004 41.7992L28.1004 33.6992C28.7004 33.9992 29.4004 34.1992 30.1004 34.1992C32.4004 34.1992 34.3004 32.2992 34.3004 29.9992C34.3004 27.6992 32.4004 25.7992 30.1004 25.7992C29.4004 25.7992 28.8004 25.9992 28.2004 26.2992L24.0004 22.1992C23.5004 21.6992 22.7004 21.6992 22.2004 22.1992C21.7004 22.6992 21.7004 23.4992 22.2004 23.9992L26.3004 28.0992C26.0004 28.6992 25.8004 29.3992 25.8004 30.0992C25.8004 30.7992 26.0004 31.3992 26.3004 31.9992L18.2004 40.1992C17.7004 40.4992 17.7004 41.2992 18.2004 41.7992ZM28.3004 29.9992C28.3004 29.0992 29.1004 28.2992 30.0004 28.2992C30.9004 28.2992 31.7004 29.0992 31.7004 29.9992C31.7004 30.8992 30.9004 31.6992 30.0004 31.6992C29.1004 31.6992 28.3004 30.8992 28.3004 29.9992Z" fill="url(#paint9_linear_1856_2841)"/>
<defs>
<linearGradient id="paint0_linear_1856_2841" x1="3.88609" y1="3.88414" x2="62.0533" y2="62.0513" gradientUnits="userSpaceOnUse">
<stop stop-color="#09C272"/>
<stop offset="1" stop-color="#019D6A"/>
</linearGradient>
<linearGradient id="paint1_linear_1856_2841" x1="10.3634" y1="10.3664" x2="54.3802" y2="54.3832" gradientUnits="userSpaceOnUse">
<stop stop-color="#09C272"/>
<stop offset="1" stop-color="#019D6A"/>
</linearGradient>
<linearGradient id="paint2_linear_1856_2841" x1="13.9349" y1="13.9336" x2="16.306" y2="16.3046" gradientUnits="userSpaceOnUse">
<stop stop-color="#09C272"/>
<stop offset="1" stop-color="#019D6A"/>
</linearGradient>
<linearGradient id="paint3_linear_1856_2841" x1="45.0827" y1="28.5811" x2="48.2405" y2="31.7389" gradientUnits="userSpaceOnUse">
<stop stop-color="#09C272"/>
<stop offset="1" stop-color="#019D6A"/>
</linearGradient>
<linearGradient id="paint4_linear_1856_2841" x1="12.0827" y1="28.5811" x2="15.2405" y2="31.7389" gradientUnits="userSpaceOnUse">
<stop stop-color="#09C272"/>
<stop offset="1" stop-color="#019D6A"/>
</linearGradient>
<linearGradient id="paint5_linear_1856_2841" x1="28.5827" y1="45.0811" x2="31.7405" y2="48.2389" gradientUnits="userSpaceOnUse">
<stop stop-color="#09C272"/>
<stop offset="1" stop-color="#019D6A"/>
</linearGradient>
<linearGradient id="paint6_linear_1856_2841" x1="28.3188" y1="12.3176" x2="32.0645" y2="16.0633" gradientUnits="userSpaceOnUse">
<stop stop-color="#09C272"/>
<stop offset="1" stop-color="#019D6A"/>
</linearGradient>
<linearGradient id="paint7_linear_1856_2841" x1="40.7953" y1="37.7927" x2="44.6663" y2="41.6637" gradientUnits="userSpaceOnUse">
<stop stop-color="#09C272"/>
<stop offset="1" stop-color="#019D6A"/>
</linearGradient>
<linearGradient id="paint8_linear_1856_2841" x1="35.1874" y1="43.6852" x2="38.1128" y2="46.6107" gradientUnits="userSpaceOnUse">
<stop stop-color="#09C272"/>
<stop offset="1" stop-color="#019D6A"/>
</linearGradient>
<linearGradient id="paint9_linear_1856_2841" x1="16.3355" y1="25.1777" x2="31.5327" y2="40.3749" gradientUnits="userSpaceOnUse">
<stop stop-color="#09C272"/>
<stop offset="1" stop-color="#019D6A"/>
</linearGradient>
</defs>
</svg>
