<svg width="46" height="58" viewBox="0 0 46 58" fill="none" xmlns="http://www.w3.org/2000/svg">
<path d="M30.2 32H28.6C28.6 31.8 28.6 31.7 28.6 31.5V29.8C28.6 29.7 28.6 29.7 28.6 29.6C31.1 28 33 25.5 33.6 22.4C35.7 22.4 37.5 20.7 37.5 18.5C37.5 17 36.6 15.7 35.4 15.1C35.7 14.5 35.8 13.8 35.9 13.1C35.9 13 35.9 12.9 35.9 12.9C36 5.8 30.2 0 23 0C15.9 0 10.1 5.7 10 12.7C10 12.8 10 12.8 10 12.9C10 13.7 10.2 14.4 10.5 15.1C9.2 15.7 8.3 17 8.3 18.6C8.3 20.7 10 22.5 12.2 22.5C12.8 25.6 14.7 28.2 17.3 29.7V29.8V31.5C17.3 31.7 17.3 31.8 17.3 32H15.7C7.1 32 0 39 0 47.6V56.8C0 57.5 0.5 58 1.1 58H44.8C45.4 58 45.9 57.5 45.9 56.9V47.7C46 39 38.9 32 30.2 32ZM34.1 17.1C34.8 17.3 35.3 17.9 35.3 18.6C35.3 19.4 34.7 20.1 33.9 20.2V17.5C33.9 17.4 33.9 17.4 33.9 17.3C34 17.2 34.1 17.1 34.1 17.1ZM12 17.4V20.1C11.2 20 10.6 19.3 10.6 18.5C10.6 17.7 11.1 17.1 11.8 17C11.9 17.1 11.9 17.1 12 17.2C12 17.3 12 17.4 12 17.4ZM23 2.3C28.5 2.3 33.1 6.5 33.6 11.8H12.4C13 6.4 17.5 2.3 23 2.3ZM12.5 14H33.5C33 15.3 31.8 16.3 30.3 16.3H15.7C14.3 16.3 13 15.4 12.5 14ZM14.3 20.3V18.4C14.8 18.5 15.3 18.6 15.8 18.6H18C17.8 18.8 17.6 19.2 17.6 19.5C17.6 20.2 18.2 20.8 18.9 20.8C19.6 20.8 20.2 20.2 20.2 19.5C20.2 19.1 20 18.8 19.8 18.6H26.4C26.2 18.8 26 19.2 26 19.5C26 20.2 26.6 20.8 27.3 20.8C28 20.8 28.6 20.2 28.6 19.5C28.6 19.1 28.4 18.8 28.2 18.6H30.4C30.9 18.6 31.3 18.5 31.8 18.4V20.3C31.8 25.1 27.9 28.9 23.1 28.9C18.1 28.9 14.3 25.1 14.3 20.3ZM26.4 30.6V31.4C26.4 33.3 24.9 34.8 23 34.8C21.1 34.8 19.6 33.3 19.6 31.4V30.6C20.7 30.9 21.8 31.1 23 31.1C24.2 31.2 25.3 31 26.4 30.6ZM10.2 55.7H9.8V53.8C9.8 53.4 10 53 10.3 52.7V55.7H10.2ZM18.3 55.7H12.6V51.1V44.6H18.3V55.7ZM18.2 42.3H13.1L14.4 39.4H18.7L18.2 42.3ZM25.5 55.7H20.6V44.6H25.5V55.7ZM20.5 42.3L20.9 39.4H25L25.4 42.3H20.5ZM33.5 51.1V55.7H27.8V44.6H33.5V51.1ZM27.3 39.4H31.5L32.8 42.3H27.7L27.3 39.4ZM36.2 55.7H35.7V52.7C36 53 36.2 53.4 36.2 53.8V55.7ZM43.7 55.7H38.5V53.8C38.5 52.1 37.3 50.6 35.8 50.1V43.4C35.8 43.2 35.8 43.1 35.7 42.9L33.4 37.7C33.2 37.3 32.8 37 32.4 37H26H23H20H13.7C13.2 37 12.8 37.3 12.7 37.7L10.3 43C10.2 43.1 10.2 43.3 10.2 43.5V50.2C8.6 50.7 7.5 52.2 7.5 53.9V55.8H2.3V47.7C2.3 40.3 8.4 34.3 15.8 34.3H18C19 36 20.8 37.2 23 37.2C25.2 37.2 27 36 28 34.3H30.2C37.6 34.3 43.7 40.3 43.7 47.7V55.7Z" fill="url(#paint0_linear_1856_2833)"/>
<path d="M25.7 25.1992C26.1 24.7992 26.1 23.9992 25.7 23.5992C25.3 23.1992 24.5 23.1992 24.1 23.5992C23.8 23.7992 23.4 23.9992 23 23.9992C22.6 23.9992 22.2 23.7992 21.9 23.4992C21.5 23.0992 20.7 23.0992 20.3 23.4992C19.9 23.8992 19.9 24.6992 20.3 25.0992C21 25.7992 22 26.1992 23 26.1992C24 26.1992 25 25.8992 25.7 25.1992Z" fill="url(#paint1_linear_1856_2833)"/>
<path d="M31.4 9.30016C30.5 7.20016 28.9 5.60016 26.9 4.60016C26.3 4.30016 25.7 4.60016 25.4 5.10016C25.1 5.70016 25.4 6.30016 25.9 6.60016C27.4 7.30016 28.7 8.60016 29.3 10.1002C29.5 10.5002 29.9 10.8002 30.3 10.8002C30.4 10.8002 30.6 10.8002 30.7 10.7002C31.4 10.6002 31.7 9.90016 31.4 9.30016Z" fill="url(#paint2_linear_1856_2833)"/>
<path d="M23 3.80078C22.4 3.80078 21.9 4.30078 21.9 4.90078C21.9 5.50078 22.4 6.00078 23 6.00078C23.6 6.00078 24.1 5.50078 24.1 4.90078C24.2 4.30078 23.7 3.80078 23 3.80078Z" fill="url(#paint3_linear_1856_2833)"/>
<defs>
<linearGradient id="paint0_linear_1856_2833" x1="2.1784" y1="16.6479" x2="45.7887" y2="60.2581" gradientUnits="userSpaceOnUse">
<stop stop-color="#09C272"/>
<stop offset="1" stop-color="#019D6A"/>
</linearGradient>
<linearGradient id="paint1_linear_1856_2833" x1="21.2802" y1="22.6311" x2="24.8807" y2="26.2315" gradientUnits="userSpaceOnUse">
<stop stop-color="#09C272"/>
<stop offset="1" stop-color="#019D6A"/>
</linearGradient>
<linearGradient id="paint2_linear_1856_2833" x1="25.8116" y1="4.81976" x2="31.5572" y2="10.5654" gradientUnits="userSpaceOnUse">
<stop stop-color="#09C272"/>
<stop offset="1" stop-color="#019D6A"/>
</linearGradient>
<linearGradient id="paint3_linear_1856_2833" x1="22.2402" y1="4.16148" x2="23.883" y2="5.80428" gradientUnits="userSpaceOnUse">
<stop stop-color="#09C272"/>
<stop offset="1" stop-color="#019D6A"/>
</linearGradient>
</defs>
</svg>
