<svg width="58" height="59" viewBox="0 0 58 59" fill="none" xmlns="http://www.w3.org/2000/svg">
<path d="M43.5 40.5996H40.6C40.1 40.5996 39.6 40.9996 39.6 41.5996C39.6 42.0996 40 42.5996 40.6 42.5996H43.5C44 42.5996 44.5 42.1996 44.5 41.5996C44.5 40.9996 44 40.5996 43.5 40.5996Z" fill="url(#paint0_linear_1856_2811)"/>
<path d="M47.4 48.3008H45.4C44.3 48.3008 43.5 49.2008 43.5 50.2008V52.2008C43.5 53.3008 44.4 54.1008 45.4 54.1008H47.4C48.5 54.1008 49.3 53.2008 49.3 52.2008V50.2008C49.3 49.2008 48.4 48.3008 47.4 48.3008ZM47.4 52.2008H45.5V50.2008H47.5V52.2008H47.4Z" fill="url(#paint1_linear_1856_2811)"/>
<path d="M12.6 48.3008H10.6C9.49995 48.3008 8.69995 49.2008 8.69995 50.2008V52.2008C8.69995 53.3008 9.59995 54.1008 10.6 54.1008H12.6C13.7 54.1008 14.5 53.2008 14.5 52.2008V50.2008C14.5 49.2008 13.6 48.3008 12.6 48.3008ZM12.6 52.2008H10.7V50.2008H12.7V52.2008H12.6Z" fill="url(#paint2_linear_1856_2811)"/>
<path d="M45.4 29H39.7C39.2 29 38.7 29.4 38.7 30V33.9C38.7 34.4 39.1 34.9 39.7 34.9H45.5C46 34.9 46.5 34.5 46.5 33.9V30.7C46.5 30.4 46.5 30.2 46.4 29.9C46.3 29.3 45.9 29 45.4 29ZM44.5 32.9H40.5999V31H44.5V32.9Z" fill="url(#paint3_linear_1856_2811)"/>
<path d="M58 49.3008V42.5008C58 39.3008 55.4 36.7008 52.2 36.7008H50.3V30.6008C50.3 27.6008 47.8 25.1008 44.8 25.1008H36.8V21.2008C36.8 19.1008 35.1 17.3008 32.9 17.3008H3.9C1.8 17.3008 0 19.0008 0 21.2008V45.4008V49.3008C0 49.8008 0.4 50.3008 1 50.3008H4.9C4.9 50.6008 4.8 50.9008 4.8 51.3008C4.8 55.0008 7.8 58.1008 11.6 58.1008H23.2C23.7 58.1008 24.2 57.7008 24.2 57.1008C24.2 56.6008 23.8 56.1008 23.2 56.1008H16.3C17.6 54.9008 18.3 53.2008 18.3 51.3008C18.3 51.0008 18.3 50.7008 18.2 50.3008H35.7H39.6C39.6 50.6008 39.5 50.9008 39.5 51.3008C39.5 53.2008 40.3 54.9008 41.5 56.1008H34.6C34.1 56.1008 33.6 56.5008 33.6 57.1008C33.6 57.6008 34 58.1008 34.6 58.1008H46.2H57C57.5 58.1008 58 57.7008 58 57.1008C58 56.6008 57.6 56.1008 57 56.1008H51.1C52.4 54.9008 53.1 53.2008 53.1 51.3008C53.1 51.0008 53.1 50.6008 53 50.3008H57C57.6 50.3008 58 49.8008 58 49.3008ZM36.7 27.1008H44.7C46.7 27.1008 48.3 28.7008 48.3 30.7008V36.8008H36.7V27.1008ZM1.9 21.3008C1.9 20.2008 2.8 19.4008 3.8 19.4008H32.8C33.9 19.4008 34.7 20.3008 34.7 21.3008V44.5008H1.9V21.3008ZM5.5 48.3008H1.9V46.4008H6.8C6.5 46.7008 6.3 46.9008 6.1 47.2008C6.1 47.2008 6.1 47.2008 6 47.3008C5.9 47.6008 5.7 48.0008 5.5 48.3008ZM11.6 56.1008C8.9 56.1008 6.7 53.9008 6.7 51.3008C6.7 50.7008 6.8 50.1008 7 49.6008C7 49.5008 7.1 49.4008 7.2 49.2008C7.3 49.1008 7.3 48.9008 7.4 48.8008C7.5 48.7008 7.5 48.6008 7.6 48.5008C7.8 48.3008 7.9 48.1008 8 48.0008C8.1 47.9008 8.1 47.8008 8.2 47.8008C8.4 47.6008 8.6 47.4008 8.8 47.3008C8.9 47.2008 9 47.2008 9 47.2008C9.2 47.1008 9.3 47.0008 9.5 46.9008C9.6 46.9008 9.7 46.8008 9.8 46.8008C10 46.7008 10.2 46.7008 10.3 46.6008C10.4 46.6008 10.5 46.5008 10.6 46.5008C10.9 46.4008 11.2 46.4008 11.5 46.4008C11.8 46.4008 12.1 46.4008 12.4 46.5008C12.5 46.5008 12.6 46.5008 12.7 46.6008C12.9 46.6008 13.1 46.7008 13.2 46.8008C13.3 46.8008 13.4 46.9008 13.5 46.9008C13.7 47.0008 13.8 47.1008 14 47.2008C14.1 47.3008 14.2 47.3008 14.3 47.4008C14.5 47.6008 14.7 47.7008 14.9 47.9008C15 48.0008 15 48.1008 15.1 48.2008C15.2 48.3008 15.3 48.4008 15.4 48.6008C15.5 48.7008 15.5 48.8008 15.6 48.9008C15.7 49.0008 15.7 49.1008 15.8 49.3008C15.9 49.4008 15.9 49.6008 16 49.7008C16.2 50.2008 16.3 50.8008 16.3 51.4008C16.4 53.9008 14.3 56.1008 11.6 56.1008ZM34.8 48.3008H17.7C17.5 48.0008 17.3 47.6008 17.1 47.3008C16.9 47.0008 16.6 46.7008 16.4 46.4008H34.9V48.3008H34.8ZM46.4 56.1008C43.7 56.1008 41.5 53.9008 41.5 51.3008C41.5 50.7008 41.6 50.1008 41.8 49.6008C41.9 49.5008 41.9 49.3008 42 49.2008C42.1 49.1008 42.1 48.9008 42.2 48.8008C42.3 48.7008 42.3 48.6008 42.4 48.5008C42.5 48.4008 42.6 48.2008 42.7 48.1008C42.8 48.0008 42.8 47.9008 42.9 47.9008C43.1 47.7008 43.3 47.5008 43.5 47.4008C43.6 47.3008 43.7 47.3008 43.8 47.2008C44 47.1008 44.1 47.0008 44.3 46.9008C44.4 46.9008 44.5 46.8008 44.6 46.8008C44.8 46.7008 45 46.7008 45.1 46.6008C45.2 46.6008 45.3 46.6008 45.4 46.5008C45.7 46.4008 46 46.4008 46.3 46.4008C46.6 46.4008 46.9 46.4008 47.2 46.5008C47.3 46.5008 47.4 46.5008 47.5 46.6008C47.7 46.6008 47.9 46.7008 48.1 46.8008C48.2 46.8008 48.3 46.9008 48.4 46.9008C48.6 47.0008 48.8 47.1008 48.9 47.2008C49 47.2008 49 47.3008 49.1 47.3008C49.3 47.5008 49.5 47.6008 49.7 47.8008C49.8 47.9008 49.8 47.9008 49.9 48.0008C50 48.1008 50.2 48.3008 50.3 48.4008C50.4 48.5008 50.4 48.6008 50.5 48.7008C50.6 48.8008 50.7 49.0008 50.7 49.1008C50.8 49.2008 50.8 49.3008 50.9 49.4008C51.1 49.9008 51.2 50.5008 51.2 51.1008C51.2 53.9008 49.1 56.1008 46.4 56.1008ZM52.5 48.3008C52.3 48.0008 52.2 47.7008 52 47.5008C51.8 47.3008 51.7 47.0008 51.5 46.8008L51.4 46.7008C51.2 46.5008 51.1 46.3008 50.9 46.2008L50.8 46.1008C50.6 45.9008 50.4 45.7008 50.1 45.6008L50 45.5008C49.8 45.4008 49.6 45.3008 49.3 45.1008C49.3 45.1008 49.2 45.1008 49.2 45.0008C48.9 44.9008 48.7 44.8008 48.4 44.7008H48.3C48.1 44.6008 47.8 44.6008 47.6 44.5008C47.5 44.5008 47.4 44.5008 47.4 44.5008C47.1 44.5008 46.9 44.4008 46.6 44.4008C46.3 44.4008 46 44.4008 45.8 44.5008C45.7 44.5008 45.7 44.5008 45.6 44.5008C45.3 44.5008 45.1 44.6008 44.9 44.7008H44.8C44.5 44.8008 44.2 44.9008 44 45.0008H43.9C43.7 45.1008 43.4 45.2008 43.2 45.4008C43.2 45.4008 43.1 45.4008 43.1 45.5008C42.8 45.7008 42.6 45.8008 42.4 46.0008C42.2 46.2008 42 46.4008 41.8 46.6008L41.7 46.7008C41.3 47.2008 41 47.7008 40.7 48.2008H37.1V38.5008H52.6C54 38.5008 55.3 39.3008 55.9 40.4008H53.5C53 40.4008 52.5 40.8008 52.5 41.4008V45.3008C52.5 45.8008 52.9 46.3008 53.5 46.3008H56.4V48.2008H52.5V48.3008ZM56.1 42.5008V44.4008H54.2V42.5008H56.1Z" fill="url(#paint4_linear_1856_2811)"/>
<path d="M4.8 56.0996H1C0.5 56.0996 0 56.4996 0 57.0996C0 57.5996 0.4 58.0996 1 58.0996H4.9C5.4 58.0996 5.9 57.6996 5.9 57.0996C5.8 56.4996 5.4 56.0996 4.8 56.0996Z" fill="url(#paint5_linear_1856_2811)"/>
<path d="M30.9 56.0996H27C26.5 56.0996 26 56.4996 26 57.0996C26 57.5996 26.4 58.0996 27 58.0996H30.9C31.4 58.0996 31.9 57.6996 31.9 57.0996C31.9 56.4996 31.5 56.0996 30.9 56.0996Z" fill="url(#paint6_linear_1856_2811)"/>
<path d="M3.9 10.6H13.6C15.7 10.6 17.5 8.9 17.5 6.7C17.5 4.4 15.5 2.6 13.2 2.9C12.4 1.2 10.7 0 8.7 0C6.7 0 5 1.2 4.3 2.9C2 2.7 0 4.5 0 6.8C0 8.9 1.7 10.6 3.9 10.6ZM3.9 4.8C4.1 4.8 4.4 4.8 4.6 4.9C4.9 5 5.2 5 5.4 4.8C5.7 4.7 5.8 4.4 5.9 4.1C6.2 2.8 7.4 1.8 8.7 1.8C10.1 1.8 11.3 2.8 11.5 4.1C11.6 4.4 11.7 4.6 12 4.8C12.3 4.9 12.5 5 12.8 4.9C14.1 4.4 15.4 5.4 15.4 6.7C15.4 7.8 14.5 8.6 13.5 8.6H3.9C2.8 8.6 2 7.7 2 6.7C1.9 5.7 2.8 4.8 3.9 4.8Z" fill="url(#paint7_linear_1856_2811)"/>
<path d="M38.5 13.4008H48.2C50.3 13.4008 52.1 11.7008 52.1 9.50078C52.1 7.20078 50.1 5.40078 47.8 5.70078C47 4.00078 45.3 2.80078 43.3 2.80078C41.3 2.80078 39.6 4.00078 38.9 5.70078C36.6 5.50078 34.6 7.30078 34.6 9.50078C34.6 11.7008 36.3 13.4008 38.5 13.4008ZM38.5 7.60078C38.7 7.60078 39 7.60078 39.2 7.70078C39.5 7.80078 39.8 7.80078 40 7.60078C40.3 7.50078 40.4 7.20078 40.5 6.90078C40.8 5.60078 42 4.60078 43.3 4.60078C44.7 4.60078 45.9 5.60078 46.1 6.90078C46.2 7.20078 46.3 7.40078 46.6 7.60078C46.8 7.70078 47.1 7.80078 47.4 7.70078C48.7 7.20078 50 8.20078 50 9.50078C50 10.6008 49.1 11.4008 48.1 11.4008H38.4C37.3 11.4008 36.5 10.5008 36.5 9.50078C36.5 8.50078 37.4 7.60078 38.5 7.60078Z" fill="url(#paint8_linear_1856_2811)"/>
<defs>
<linearGradient id="paint0_linear_1856_2811" x1="40.4956" y1="40.014" x2="43.2866" y2="42.805" gradientUnits="userSpaceOnUse">
<stop stop-color="#09C272"/>
<stop offset="1" stop-color="#019D6A"/>
</linearGradient>
<linearGradient id="paint1_linear_1856_2811" x1="43.8195" y1="48.6522" x2="48.4544" y2="53.2871" gradientUnits="userSpaceOnUse">
<stop stop-color="#09C272"/>
<stop offset="1" stop-color="#019D6A"/>
</linearGradient>
<linearGradient id="paint2_linear_1856_2811" x1="9.01865" y1="48.6522" x2="13.6535" y2="53.2871" gradientUnits="userSpaceOnUse">
<stop stop-color="#09C272"/>
<stop offset="1" stop-color="#019D6A"/>
</linearGradient>
<linearGradient id="paint3_linear_1856_2811" x1="39.0988" y1="28.4927" x2="45.2495" y2="34.6434" gradientUnits="userSpaceOnUse">
<stop stop-color="#09C272"/>
<stop offset="1" stop-color="#019D6A"/>
</linearGradient>
<linearGradient id="paint4_linear_1856_2811" x1="0.409401" y1="14.3119" x2="47.8527" y2="61.7552" gradientUnits="userSpaceOnUse">
<stop stop-color="#09C272"/>
<stop offset="1" stop-color="#019D6A"/>
</linearGradient>
<linearGradient id="paint5_linear_1856_2811" x1="1.0796" y1="55.2121" x2="4.3494" y2="58.4819" gradientUnits="userSpaceOnUse">
<stop stop-color="#09C272"/>
<stop offset="1" stop-color="#019D6A"/>
</linearGradient>
<linearGradient id="paint6_linear_1856_2811" x1="27.1793" y1="55.2121" x2="30.4492" y2="58.482" gradientUnits="userSpaceOnUse">
<stop stop-color="#09C272"/>
<stop offset="1" stop-color="#019D6A"/>
</linearGradient>
<linearGradient id="paint7_linear_1856_2811" x1="3.0222" y1="1.0954" x2="13.2203" y2="11.2935" gradientUnits="userSpaceOnUse">
<stop stop-color="#09C272"/>
<stop offset="1" stop-color="#019D6A"/>
</linearGradient>
<linearGradient id="paint8_linear_1856_2811" x1="37.6225" y1="3.89758" x2="47.8201" y2="14.0951" gradientUnits="userSpaceOnUse">
<stop stop-color="#09C272"/>
<stop offset="1" stop-color="#019D6A"/>
</linearGradient>
</defs>
</svg>
