<svg width="436" height="394" viewBox="0 0 436 394" fill="none" xmlns="http://www.w3.org/2000/svg">
<g clip-path="url(#clip0_1856_2748)">
<g filter="url(#filter0_d_1856_2748)">
<path d="M313 33.9616C313 17.3828 299.6 4 283 4H78C61.4 4 48 17.3828 48 33.9616V394H313V33.9616Z" fill="white"/>
<path d="M46.6881 40.0305C46.6881 21.4635 62.4541 6.29058 81.8123 6.29058H277.789C297.148 6.29058 312.914 21.3637 312.914 40.0305V394H319.2V40.4298C319.2 18.6685 300.84 1 278.188 1H82.2114C59.5603 1 41.2 18.5687 41.2 40.4298V394H46.6881V40.0305Z" fill="url(#paint0_linear_1856_2748)"/>
<path d="M41.2 72.5H38V93.5H41.2" fill="#F0F3F5"/>
<path d="M318.8 188.2H322V124H318.8" fill="#F0F3F5"/>
<path d="M41.3 112.199H38V150.699H41.3" fill="#F0F3F5"/>
<path d="M41.3 161.602H38V200.202H41.3" fill="#F0F3F5"/>
<path d="M57.8866 38.966C57.8866 25.6797 68.4747 15.0906 82.2593 15.0906H105.034C109.828 15.0906 111.626 14.9907 111.926 20.8847C112.226 26.9784 116.621 30.3749 122.414 32.0731C124.412 32.6725 126.609 32.5726 128.707 32.5726H133.002H228.295H232.59C234.688 32.5726 236.886 32.7724 238.883 32.173C244.677 30.4748 249.172 26.8785 249.371 20.7848C249.671 14.9907 251.469 15.0906 256.264 15.0906H278.738C292.523 15.0906 304.11 25.6797 304.11 38.966V394H313V39.7652C313 21.0844 297.218 6 277.839 6H81.2604C61.7823 6 46 21.0844 46 39.7652V394H57.8866V38.966ZM208.917 15.5901C210.915 15.69 212.413 17.0886 212.413 18.8867C212.413 20.6849 210.815 22.1833 208.917 22.1833C207.019 22.1833 205.421 20.6849 205.421 18.8867C205.421 17.0886 207.019 15.5901 208.917 15.5901ZM165.366 17.2884H196.131C197.43 17.2884 198.529 18.0875 198.529 19.1864C198.529 20.2853 197.53 21.0844 196.131 21.0844H165.366C164.067 21.0844 162.969 20.2853 162.969 19.1864C162.969 18.0875 164.067 17.2884 165.366 17.2884Z" fill="#F0F3F5"/>
<path d="M57.8866 38.966C57.8866 25.6797 68.4747 15.0906 82.2593 15.0906H105.034C109.828 15.0906 111.626 14.9907 111.926 20.8847C112.226 26.9784 116.621 30.3749 122.414 32.0731C124.412 32.6725 126.609 32.5726 128.707 32.5726H133.002H228.295H232.59C234.688 32.5726 236.886 32.7724 238.883 32.173C244.677 30.4748 249.172 26.8785 249.371 20.7848C249.671 14.9907 251.469 15.0906 256.264 15.0906H278.738C292.523 15.0906 304.11 25.6797 304.11 38.966V394H313V39.7652C313 21.0844 297.218 6 277.839 6H81.2604C61.7823 6 46 21.0844 46 39.7652V394H57.8866V38.966ZM208.917 15.5901C210.915 15.69 212.413 17.0886 212.413 18.8867C212.413 20.6849 210.815 22.1833 208.917 22.1833C207.019 22.1833 205.421 20.6849 205.421 18.8867C205.421 17.0886 207.019 15.5901 208.917 15.5901ZM165.366 17.2884H196.131C197.43 17.2884 198.529 18.0875 198.529 19.1864C198.529 20.2853 197.53 21.0844 196.131 21.0844H165.366C164.067 21.0844 162.969 20.2853 162.969 19.1864C162.969 18.0875 164.067 17.2884 165.366 17.2884Z" fill="url(#paint1_linear_1856_2748)"/>
<path d="M210.5 23.0992C212.8 23.0992 214.7 21.1992 214.7 18.8992C214.7 16.5992 212.8 14.6992 210.5 14.6992C208.2 14.6992 206.3 16.5992 206.3 18.8992C206.3 21.1992 208.1 23.0992 210.5 23.0992Z" fill="#D5D7E8"/>
<path d="M165.5 21.0008H196.5C197.9 21.0008 198.9 20.2008 198.9 18.9008C198.9 17.6008 197.9 16.8008 196.5 16.8008H165.5C164.1 16.8008 163.1 17.6008 163.1 18.9008C163.1 20.2008 164.3 21.0008 165.5 21.0008Z" fill="#D5D7E8"/>
</g>
</g>
<defs>
<filter id="filter0_d_1856_2748" x="18" y="-19" width="404" height="513" filterUnits="userSpaceOnUse" color-interpolation-filters="sRGB">
<feFlood flood-opacity="0" result="BackgroundImageFix"/>
<feColorMatrix in="SourceAlpha" type="matrix" values="0 0 0 0 0 0 0 0 0 0 0 0 0 0 0 0 0 0 127 0" result="hardAlpha"/>
<feOffset dx="40" dy="40"/>
<feGaussianBlur stdDeviation="30"/>
<feColorMatrix type="matrix" values="0 0 0 0 0 0 0 0 0 0 0 0 0 0 0 0 0 0 0.08 0"/>
<feBlend mode="normal" in2="BackgroundImageFix" result="effect1_dropShadow_1856_2748"/>
<feBlend mode="normal" in="SourceGraphic" in2="effect1_dropShadow_1856_2748" result="shape"/>
</filter>
<linearGradient id="paint0_linear_1856_2748" x1="25.0356" y1="1" x2="319.542" y2="394.193" gradientUnits="userSpaceOnUse">
<stop stop-color="white"/>
<stop offset="1" stop-color="#F4F4F4"/>
</linearGradient>
<linearGradient id="paint1_linear_1856_2748" x1="45.602" y1="5.69953" x2="320.328" y2="401.268" gradientUnits="userSpaceOnUse">
<stop stop-color="#F5F8FA"/>
<stop offset="1" stop-color="#E5E8EA"/>
</linearGradient>
<clipPath id="clip0_1856_2748">
<rect width="436" height="394" fill="white"/>
</clipPath>
</defs>
</svg>
