<svg width="144" height="50" viewBox="0 0 144 50" fill="none" xmlns="http://www.w3.org/2000/svg">
<path d="M71.4726 29.1309C68.9789 29.1309 67.0182 28.5779 65.6285 27.4528C64.2199 26.2514 63.5156 24.5733 63.5156 22.2659V11.9492C63.5156 11.7967 63.5917 11.625 63.744 11.4725C63.8963 11.3199 64.0486 11.2246 64.2199 11.2246H68.9789C69.1312 11.2246 69.2834 11.3009 69.4548 11.4725C69.607 11.625 69.6832 11.7967 69.6832 11.9492V22.1705C69.6832 22.8189 69.8355 23.2956 70.1592 23.6007C70.4637 23.9249 70.9395 24.0774 71.5678 24.0774C72.1959 24.0774 72.6528 23.9249 72.9003 23.6007C73.2049 23.2765 73.3762 22.7998 73.3762 22.1705V11.9492C73.3762 11.7967 73.4523 11.625 73.6046 11.4725C73.7569 11.3199 73.9092 11.2246 74.0805 11.2246H78.8776C79.0299 11.2246 79.1821 11.3009 79.3535 11.4725C79.5058 11.625 79.5819 11.7967 79.5819 11.9492V22.2659C79.5819 24.5923 78.8776 26.2704 77.4689 27.4528C75.908 28.5779 73.9663 29.1309 71.4726 29.1309ZM82.9703 28.883C82.818 28.883 82.6657 28.8067 82.4944 28.6351C82.3421 28.4826 82.266 28.3109 82.266 28.1584V11.9492C82.266 11.7967 82.3421 11.625 82.4944 11.4725C82.6466 11.3199 82.799 11.2246 82.9703 11.2246H91.0796C93.421 11.2246 95.1342 11.625 96.2383 12.5023C97.3233 13.3794 97.8754 14.7334 97.8754 16.5069C97.8754 17.2315 97.647 17.8608 97.2472 18.4329C96.8666 18.9859 96.3906 19.3864 95.9147 19.6342C96.5429 19.8822 97.076 20.3589 97.5518 21.0645C98.0277 21.7128 98.2561 22.4947 98.2561 23.2956C98.2561 25.1263 97.628 26.5756 96.4668 27.4528C95.3056 28.33 93.5733 28.8067 91.308 28.8067H82.9512V28.883H82.9703ZM90.4515 17.8608C90.756 17.8608 91.0035 17.7845 91.1557 17.5366C91.308 17.2887 91.3842 17.0598 91.3842 16.7357C91.3842 16.4115 91.308 16.1827 91.1557 15.9347C91.0035 15.6869 90.775 15.6106 90.4515 15.6106H88.4146V17.9371H90.4515V17.8608ZM90.6989 24.5733C91.0796 24.5733 91.3271 24.4207 91.5555 24.1728C91.784 23.9249 91.8601 23.6198 91.8601 23.2956C91.8601 22.9714 91.784 22.6472 91.5555 22.4184C91.3271 22.1705 91.0796 22.0179 90.775 22.0179H88.5097V24.497H90.6989V24.5733ZM101.264 28.883C101.112 28.883 100.959 28.8067 100.788 28.6351C100.636 28.4826 100.56 28.3109 100.56 28.1584V11.9492C100.56 11.7967 100.636 11.625 100.788 11.4725C100.94 11.3199 101.093 11.2246 101.264 11.2246H106.251C106.404 11.2246 106.556 11.3009 106.727 11.4725C106.899 11.6441 106.955 11.7967 106.955 11.9492V28.2537C106.955 28.4062 106.879 28.5779 106.727 28.7304C106.575 28.883 106.423 28.9783 106.251 28.9783H101.264V28.883ZM110.573 28.883C110.421 28.883 110.268 28.8067 110.097 28.6351C109.944 28.4826 109.868 28.3109 109.868 28.1584V11.9492C109.868 11.7967 109.944 11.625 110.097 11.4725C110.249 11.3199 110.401 11.2246 110.573 11.2246H117.825C120.166 11.2246 122.032 11.7777 123.364 12.8265C124.697 13.8562 125.402 15.3818 125.402 17.3078C125.402 18.4329 125.173 19.3864 124.697 20.1873C124.221 20.9882 123.612 21.7128 122.755 22.2659L125.801 28.0248C125.877 28.1011 125.877 28.1775 125.877 28.2728C125.877 28.4253 125.801 28.597 125.725 28.6732C125.649 28.7495 125.496 28.8257 125.344 28.8257H120.28C119.976 28.8257 119.729 28.7495 119.576 28.5779C119.424 28.4253 119.271 28.2537 119.271 28.1011L117.14 23.2956H116.131V28.0821C116.131 28.2346 116.055 28.4062 115.903 28.5588C115.751 28.7113 115.598 28.8067 115.427 28.8067H110.591V28.883H110.573ZM117.844 18.5855C118.224 18.5855 118.472 18.5091 118.701 18.2613C118.929 18.0133 119.005 17.7082 119.005 17.3078C119.005 16.9073 118.929 16.5831 118.701 16.3543C118.548 16.0301 118.224 15.9538 117.844 15.9538H116.055V18.5855H117.844ZM128.638 28.883C128.485 28.883 128.333 28.8067 128.161 28.6351C128.009 28.4826 127.933 28.3109 127.933 28.1584V11.9492C127.933 11.7967 128.009 11.625 128.161 11.4725C128.314 11.3199 128.466 11.2246 128.638 11.2246H135.738C137.299 11.2246 138.707 11.4725 139.869 12.0255C141.125 12.5785 142.057 13.3794 142.762 14.4283C143.467 15.458 143.847 16.7547 143.923 18.185C143.923 19.1384 143.999 19.7868 143.999 20.111C143.999 20.4352 143.999 21.0645 143.923 21.9417C143.847 24.2682 143.066 26.0225 141.582 27.1286C140.173 28.33 138.231 28.883 135.814 28.883H128.638ZM135.662 24.0203C136.214 24.0203 136.671 23.8677 137.071 23.5436C137.451 23.2194 137.622 22.6663 137.698 22.0179C137.698 21.5412 137.774 20.8928 137.774 20.0919C137.774 19.291 137.774 18.6617 137.698 18.2613C137.698 17.6129 137.47 17.0598 137.071 16.7357C136.689 16.4115 136.214 16.2589 135.586 16.2589H134.1V24.0965H135.662V24.0203Z" fill="url(#paint0_linear_813_9918)"/>
<path d="M25.7001 49.9997C33.0594 49.9997 39.0253 48.6337 39.0253 46.9486C39.0253 45.2635 33.0594 43.8975 25.7001 43.8975C18.3408 43.8975 12.375 45.2635 12.375 46.9486C12.375 48.6337 18.3408 49.9997 25.7001 49.9997Z" fill="#E6E6E7"/>
<path d="M39.4991 6.21387L51.1491 17.5984C51.5108 17.9416 51.5108 18.59 51.1491 18.9333L40.0702 29.9745L39.9941 29.7838C38.0715 25.9699 37.0625 21.5648 37.1767 17.1216C37.2528 14.6425 37.6717 12.2208 38.395 9.79894L39.4991 6.21387Z" fill="url(#paint1_linear_813_9918)"/>
<path d="M44.7178 17.9038C44.4704 22.3281 42.7001 26.3326 39.9589 29.441H39.978C32.2304 37.5837 19.2859 37.6027 11.5192 29.4981L11.4812 29.441H11.5002C8.73997 26.3326 6.98867 22.309 6.7412 17.8848C6.72216 18.2662 6.70312 18.6667 6.70312 19.0671C6.70312 23.9298 8.51154 28.354 11.5002 31.7292H11.4812L25.7771 46.6607L39.978 31.7292H39.9589C42.9476 28.354 44.756 23.9298 44.756 19.0671C44.756 18.6857 44.7369 18.3044 44.7178 17.9038Z" fill="url(#paint2_linear_813_9918)"/>
<path d="M11.4589 29.4433L11.497 29.5006C19.2636 37.6051 32.208 37.586 39.9557 29.4433H39.9366C42.6968 26.335 44.4481 22.3304 44.6956 17.9063C44.1245 7.91385 35.8439 0 25.7168 0H25.6977H0.570312C0.570312 0.0190695 0.570312 0.038139 0.570312 0.038139C1.9409 3.3181 4.07292 5.81621 7.23289 7.24642H1.99801C3.1592 10.0687 4.96762 12.5477 7.23289 14.4928C6.96639 15.5989 6.77602 16.724 6.71891 17.9063C6.96639 22.3304 8.73673 26.354 11.4779 29.4624H11.4589V29.4433Z" fill="url(#paint3_linear_813_9918)"/>
<path d="M11.4596 29.4433L11.4977 29.5006C19.2643 37.6051 32.2088 37.586 39.9564 29.4433H39.9374C42.6976 26.335 44.4489 22.3304 44.6964 17.9063C44.1253 7.91385 35.8447 0 25.7176 0H25.6986H0H0.571077C0.571077 0.0190695 0.571077 0.038139 0.571077 0.038139C1.94167 3.3181 4.07369 5.81621 7.23366 7.24642H1.4277C2.58888 10.0687 4.96838 12.5477 7.23366 14.4928C6.96715 15.5989 6.77679 16.724 6.71968 17.9063C6.96715 22.3304 8.73749 26.354 11.4787 29.4624H11.4596V29.4433Z" fill="url(#paint4_linear_813_9918)"/>
<path d="M25.6781 27.6311C30.932 27.6311 35.196 23.3594 35.196 18.0962C35.196 12.8331 30.932 8.56152 25.6781 8.56152C20.4242 8.56152 16.1602 12.8331 16.1602 18.0962C16.1602 23.3594 20.4242 27.6311 25.6781 27.6311Z" fill="white"/>
<path d="M25.6784 22.9588C28.3624 22.9588 30.5325 20.7849 30.5325 18.0961C30.5325 15.4073 28.3624 13.2334 25.6784 13.2334C22.9943 13.2334 20.8242 15.4073 20.8242 18.0961C20.8242 20.7849 23.0133 22.9588 25.6784 22.9588Z" fill="url(#paint5_linear_813_9918)"/>
<path d="M28.2496 18.5712C29.5821 18.5712 30.6671 17.4843 30.6671 16.1494C30.6671 14.8145 29.5821 13.7275 28.2496 13.7275C26.9171 13.7275 25.832 14.8145 25.832 16.1494C25.832 17.4843 26.9171 18.5712 28.2496 18.5712Z" fill="white"/>
<defs>
<linearGradient id="paint0_linear_813_9918" x1="62.2858" y1="20.1785" x2="145.383" y2="20.1785" gradientUnits="userSpaceOnUse">
<stop stop-color="#222C54"/>
<stop offset="1" stop-color="#2D3A72"/>
</linearGradient>
<linearGradient id="paint1_linear_813_9918" x1="40.0967" y1="23.0354" x2="45.8074" y2="11.7199" gradientUnits="userSpaceOnUse">
<stop stop-color="#CC1441"/>
<stop offset="1" stop-color="#FF2F61"/>
</linearGradient>
<linearGradient id="paint2_linear_813_9918" x1="0.573578" y1="32.2889" x2="44.7593" y2="32.2889" gradientUnits="userSpaceOnUse">
<stop stop-color="#12B07E"/>
<stop offset="1" stop-color="#13B567"/>
</linearGradient>
<linearGradient id="paint3_linear_813_9918" x1="0.570312" y1="17.7847" x2="44.7196" y2="17.7847" gradientUnits="userSpaceOnUse">
<stop stop-color="#12B07E"/>
<stop offset="1" stop-color="#13B567"/>
</linearGradient>
<linearGradient id="paint4_linear_813_9918" x1="14.1834" y1="32.6338" x2="27.1695" y2="-2.98237" gradientUnits="userSpaceOnUse">
<stop stop-color="#109B63"/>
<stop offset="1" stop-color="#13B371"/>
</linearGradient>
<linearGradient id="paint5_linear_813_9918" x1="20.8421" y1="18.0954" x2="30.5331" y2="18.0954" gradientUnits="userSpaceOnUse">
<stop stop-color="#222C54"/>
<stop offset="1" stop-color="#2D3A72"/>
</linearGradient>
</defs>
</svg>
