<svg width="79" height="75" viewBox="0 0 79 75" fill="none" xmlns="http://www.w3.org/2000/svg">
<path d="M7.73599 74.5481C5.31155 74.5481 3.40532 74.0061 2.05429 72.9035C0.684765 71.7262 0 70.0816 0 67.8204V57.7101C0 57.5606 0.0740308 57.3924 0.222088 57.2429C0.370145 57.0934 0.518202 57 0.684767 57H5.31155C5.45961 57 5.60767 57.0748 5.77423 57.2429C5.92229 57.3924 5.99632 57.5606 5.99632 57.7101V67.7269C5.99632 68.3623 6.14438 68.8295 6.459 69.1285C6.75511 69.4462 7.21779 69.5957 7.82853 69.5957C8.43926 69.5957 8.88343 69.4462 9.12403 69.1285C9.42014 68.8108 9.5867 68.3436 9.5867 67.7269V57.7101C9.5867 57.5606 9.66073 57.3924 9.80879 57.2429C9.95684 57.0934 10.1049 57 10.2715 57H14.9353C15.0833 57 15.2314 57.0748 15.3979 57.2429C15.546 57.3924 15.62 57.5606 15.62 57.7101V67.8204C15.62 70.1003 14.9353 71.7448 13.5657 72.9035C12.0482 74.0061 10.1604 74.5481 7.73599 74.5481ZM18.9143 74.3051C18.7662 74.3051 18.6182 74.2304 18.4516 74.0622C18.3036 73.9127 18.2295 73.7445 18.2295 73.595V57.7101C18.2295 57.5606 18.3036 57.3924 18.4516 57.2429C18.5997 57.0934 18.7477 57 18.9143 57H26.7983C29.0747 57 30.7404 57.3924 31.8138 58.2521C32.8687 59.1117 33.4054 60.4386 33.4054 62.1766C33.4054 62.8867 33.1833 63.5034 32.7947 64.0641C32.4245 64.606 31.9618 64.9985 31.4992 65.2414C32.1099 65.4844 32.6281 65.9516 33.0908 66.643C33.5535 67.2784 33.7755 68.0446 33.7755 68.8295C33.7755 70.6236 33.1648 72.0439 32.0359 72.9035C30.9069 73.7632 29.2228 74.2304 27.0204 74.2304H18.8958V74.3051H18.9143ZM26.1876 63.5034C26.4837 63.5034 26.7243 63.4287 26.8724 63.1857C27.0204 62.9428 27.0945 62.7185 27.0945 62.4008C27.0945 62.0831 27.0204 61.8589 26.8724 61.6159C26.7243 61.373 26.5022 61.2982 26.1876 61.2982H24.2073V63.5782H26.1876V63.5034ZM26.4282 70.0816C26.7983 70.0816 27.0389 69.9321 27.261 69.6892C27.4831 69.4462 27.5571 69.1472 27.5571 68.8295C27.5571 68.5118 27.4831 68.1941 27.261 67.9699C27.0389 67.7269 26.7983 67.5774 26.5022 67.5774H24.2999V70.0069H26.4282V70.0816ZM36.6997 74.3051C36.5516 74.3051 36.4035 74.2304 36.237 74.0622C36.0889 73.9127 36.0149 73.7445 36.0149 73.595V57.7101C36.0149 57.5606 36.0889 57.3924 36.237 57.2429C36.385 57.0934 36.5331 57 36.6997 57H41.5485C41.6966 57 41.8447 57.0748 42.0112 57.2429C42.1778 57.4111 42.2333 57.5606 42.2333 57.7101V73.6884C42.2333 73.8379 42.1593 74.0061 42.0112 74.1556C41.8632 74.3051 41.7151 74.3985 41.5485 74.3985H36.6997V74.3051ZM45.7497 74.3051C45.6016 74.3051 45.4535 74.2304 45.287 74.0622C45.1389 73.9127 45.0649 73.7445 45.0649 73.595V57.7101C45.0649 57.5606 45.1389 57.3924 45.287 57.2429C45.435 57.0934 45.5831 57 45.7497 57H52.8009C55.0773 57 56.891 57.542 58.1865 58.5698C59.482 59.5789 60.1667 61.074 60.1667 62.9615C60.1667 64.0641 59.9446 64.9985 59.482 65.7834C59.0193 66.5683 58.4271 67.2784 57.5942 67.8204L60.5554 73.4641C60.6294 73.5389 60.6294 73.6137 60.6294 73.7071C60.6294 73.8566 60.5554 74.0248 60.4813 74.0995C60.4073 74.1743 60.2593 74.249 60.1112 74.249H55.1883C54.8922 74.249 54.6516 74.1743 54.5035 74.0061C54.3555 73.8566 54.2074 73.6884 54.2074 73.5389L52.1346 68.8295H51.1538V73.5202C51.1538 73.6697 51.0797 73.8379 50.9317 73.9874C50.7836 74.1369 50.6355 74.2304 50.469 74.2304H45.7682V74.3051H45.7497ZM52.8194 64.2136C53.1895 64.2136 53.4301 64.1388 53.6522 63.8959C53.8743 63.6529 53.9483 63.3539 53.9483 62.9615C53.9483 62.569 53.8743 62.2513 53.6522 62.0271C53.5042 61.7094 53.1895 61.6346 52.8194 61.6346H51.0797V64.2136H52.8194ZM63.3129 74.3051C63.1649 74.3051 63.0168 74.2304 62.8503 74.0622C62.7022 73.9127 62.6282 73.7445 62.6282 73.595V57.7101C62.6282 57.5606 62.7022 57.3924 62.8503 57.2429C62.9983 57.0934 63.1464 57 63.3129 57H70.2161C71.7337 57 73.1032 57.2429 74.2322 57.7849C75.4536 58.3268 76.3605 59.1117 77.0452 60.1396C77.73 61.1487 78.1002 62.4195 78.1742 63.8211C78.1742 64.7555 78.2482 65.3909 78.2482 65.7086C78.2482 66.0263 78.2482 66.643 78.1742 67.5027C78.1002 69.7826 77.3414 71.5019 75.8978 72.5858C74.5283 73.7632 72.6405 74.3051 70.2901 74.3051H63.3129ZM70.1421 69.5397C70.6788 69.5397 71.123 69.3902 71.5116 69.0725C71.8818 68.7548 72.0483 68.2128 72.1223 67.5774C72.1223 67.1102 72.1964 66.4748 72.1964 65.6899C72.1964 64.905 72.1964 64.2883 72.1223 63.8959C72.1223 63.2605 71.9003 62.7185 71.5116 62.4008C71.1415 62.0831 70.6788 61.9336 70.0681 61.9336H68.6245V69.6144H70.1421V69.5397Z" fill="url(#paint0_linear_3860_1103)"/>
<path d="M38.9853 48.9997C46.1401 48.9997 51.9403 47.661 51.9403 46.0096C51.9403 44.3582 46.1401 43.0195 38.9853 43.0195C31.8304 43.0195 26.0303 44.3582 26.0303 46.0096C26.0303 47.661 31.8304 48.9997 38.9853 48.9997Z" fill="#E6E6E7"/>
<path d="M52.4031 6.08984L63.7295 17.2466C64.0811 17.583 64.0811 18.2184 63.7295 18.5548L52.9583 29.3751L52.8843 29.1882C51.0151 25.4506 50.0342 21.1337 50.1452 16.7794C50.2192 14.3499 50.6264 11.9766 51.3297 9.60319L52.4031 6.08984Z" fill="url(#paint1_linear_3860_1103)"/>
<path d="M57.4724 17.546C57.2318 21.8817 55.5107 25.8061 52.8457 28.8523H52.8642C45.3318 36.8321 32.7469 36.8508 25.196 28.9083L25.159 28.8523H25.1775C22.4939 25.8061 20.7913 21.863 20.5507 17.5273C20.5322 17.9011 20.5137 18.2936 20.5137 18.686C20.5137 23.4514 22.2719 27.7871 25.1775 31.0948H25.159L39.0578 45.7276L52.8642 31.0948H52.8457C55.7513 27.7871 57.5095 23.4514 57.5095 18.686C57.5095 18.3122 57.4909 17.9385 57.4724 17.546Z" fill="url(#paint2_linear_3860_1103)"/>
<path d="M25.1418 28.8543L25.1788 28.9104C32.7297 36.8528 45.3145 36.8341 52.847 28.8543H52.8284C55.512 25.8082 57.2146 21.8837 57.4552 17.5481C56.9 7.75553 48.8494 0 39.0036 0H38.9851H14.5557C14.5557 0.018688 14.5557 0.037376 14.5557 0.037376C15.8882 3.25172 17.961 5.69985 21.0332 7.10145H15.9437C17.0726 9.86728 18.8308 12.2967 21.0332 14.2029C20.7741 15.2868 20.589 16.3894 20.5335 17.5481C20.7741 21.8837 22.4952 25.8268 25.1603 28.873H25.1418V28.8543Z" fill="url(#paint3_linear_3860_1103)"/>
<path d="M25.1413 28.8543L25.1783 28.9104C32.7292 36.8528 45.3141 36.8341 52.8465 28.8543H52.828C55.5115 25.8082 57.2142 21.8837 57.4548 17.5481C56.8996 7.75553 48.849 0 39.0032 0H38.9847H14H14.5552C14.5552 0.018688 14.5552 0.037376 14.5552 0.037376C15.8877 3.25172 17.9605 5.69985 21.0327 7.10145H15.388C16.517 9.86728 18.8304 12.2967 21.0327 14.2029C20.7736 15.2868 20.5885 16.3894 20.533 17.5481C20.7736 21.8837 22.4948 25.8268 25.1598 28.873H25.1413V28.8543Z" fill="url(#paint4_linear_3860_1103)"/>
<path d="M38.9655 27.0787C44.0734 27.0787 48.219 22.8925 48.219 17.7346C48.219 12.5767 44.0734 8.39062 38.9655 8.39062C33.8575 8.39062 29.7119 12.5767 29.7119 17.7346C29.7119 22.8925 33.8575 27.0787 38.9655 27.0787Z" fill="white"/>
<path d="M38.9664 22.4995C41.5759 22.4995 43.6857 20.3692 43.6857 17.7341C43.6857 15.0991 41.5759 12.9688 38.9664 12.9688C36.3569 12.9688 34.2471 15.0991 34.2471 17.7341C34.2471 20.3692 36.3754 22.4995 38.9664 22.4995Z" fill="url(#paint5_linear_3860_1103)"/>
<path d="M41.4647 18.1999C42.7602 18.1999 43.8151 17.1347 43.8151 15.8265C43.8151 14.5183 42.7602 13.4531 41.4647 13.4531C40.1692 13.4531 39.1143 14.5183 39.1143 15.8265C39.1143 17.1347 40.1692 18.1999 41.4647 18.1999Z" fill="white"/>
<defs>
<linearGradient id="paint0_linear_3860_1103" x1="-1.19567" y1="65.7748" x2="79.5926" y2="65.7748" gradientUnits="userSpaceOnUse">
<stop stop-color="#222C54"/>
<stop offset="1" stop-color="#2D3A72"/>
</linearGradient>
<linearGradient id="paint1_linear_3860_1103" x1="52.9841" y1="22.5749" x2="58.607" y2="11.5217" gradientUnits="userSpaceOnUse">
<stop stop-color="#CC1441"/>
<stop offset="1" stop-color="#FF2F61"/>
</linearGradient>
<linearGradient id="paint2_linear_3860_1103" x1="14.5544" y1="31.6433" x2="57.5127" y2="31.6433" gradientUnits="userSpaceOnUse">
<stop stop-color="#12B07E"/>
<stop offset="1" stop-color="#13B567"/>
</linearGradient>
<linearGradient id="paint3_linear_3860_1103" x1="14.5557" y1="17.4289" x2="57.4786" y2="17.4289" gradientUnits="userSpaceOnUse">
<stop stop-color="#12B07E"/>
<stop offset="1" stop-color="#13B567"/>
</linearGradient>
<linearGradient id="paint4_linear_3860_1103" x1="27.7894" y1="31.9809" x2="40.5933" y2="-2.85708" gradientUnits="userSpaceOnUse">
<stop stop-color="#109B63"/>
<stop offset="1" stop-color="#13B371"/>
</linearGradient>
<linearGradient id="paint5_linear_3860_1103" x1="34.2645" y1="17.7334" x2="43.6863" y2="17.7334" gradientUnits="userSpaceOnUse">
<stop stop-color="#222C54"/>
<stop offset="1" stop-color="#2D3A72"/>
</linearGradient>
</defs>
</svg>
